<svg xmlns="http://www.w3.org/2000/svg" width="200" height="35" fill="none"><path fill="#fff" d="M48.13 30.5c-.42 0-.77-.14-1.05-.42a1.45 1.45 0 0 1-.38-1.01V7.4c0-.4.13-.72.38-.98.28-.28.62-.42 1.02-.42h12.28c.4 0 .74.13 1.02.38.28.26.42.59.42.99 0 .37-.14.68-.42.94-.28.26-.62.38-1.02.38H49.36l.2-.28V17l-.17-.38h9.42c.4 0 .73.14 1.01.41a1.3 1.3 0 0 1 0 1.93c-.28.26-.62.39-1.01.39h-9.49l.25-.32v10.05c0 .4-.14.73-.42 1.01-.28.28-.62.42-1.02.42Zm18.96 0c-.4 0-.74-.14-1.02-.42a1.45 1.45 0 0 1-.38-1.01V13.8c0-.4.13-.72.38-.98.28-.28.62-.42 1.02-.42.42 0 .76.14 1.01.42.26.26.39.59.39.98v4.63l-.42-.74a7.33 7.33 0 0 1 2.14-3.96c.55-.55 1.2-.99 1.92-1.29a5.72 5.72 0 0 1 2.38-.49c.51 0 .98.13 1.4.39.44.23.66.57.66 1.01 0 .49-.12.85-.38 1.09-.26.23-.55.35-.88.35-.3 0-.6-.06-.87-.18a2.34 2.34 0 0 0-1.05-.21c-.58 0-1.17.16-1.75.49a5.5 5.5 0 0 0-1.58 1.33 7.98 7.98 0 0 0-1.15 2c-.28.72-.42 1.5-.42 2.34v8.5c0 .4-.14.74-.42 1.02-.26.28-.58.42-.98.42Zm20.23.35c-1.87 0-3.5-.4-4.9-1.19a8.64 8.64 0 0 1-3.3-3.25 9.86 9.86 0 0 1-1.15-4.84c0-2.02.4-3.75 1.2-5.18a8.57 8.57 0 0 1 3.14-3.29 8.01 8.01 0 0 1 4.13-1.15c1.07 0 2.11.2 3.12.6 1 .4 1.89.97 2.66 1.74a9.02 9.02 0 0 1 2.59 6.26c0 .38-.14.7-.42.95-.28.26-.61.39-.98.39H79.58l-.63-2.41h13.48l-.56.48v-.77a4.42 4.42 0 0 0-.98-2.45 5.54 5.54 0 0 0-4.44-2.17c-.7 0-1.4.13-2.1.39-.69.23-1.3.63-1.86 1.19a6.24 6.24 0 0 0-1.33 2.1c-.33.86-.5 1.9-.5 3.11 0 1.36.27 2.55.81 3.57a6.48 6.48 0 0 0 2.31 2.46c.98.58 2.12.87 3.43.87a6.53 6.53 0 0 0 3.71-1.09 8 8 0 0 0 1.12-.98c.3-.2.6-.31.88-.31.35 0 .63.12.84.35.23.23.35.51.35.84 0 .4-.2.75-.56 1.05a8.9 8.9 0 0 1-2.66 1.93c-1.12.53-2.31.8-3.57.8Zm20.06 0c-1.87 0-3.5-.4-4.9-1.19a8.64 8.64 0 0 1-3.29-3.25 9.86 9.86 0 0 1-1.16-4.84c0-2.02.4-3.75 1.2-5.18a8.56 8.56 0 0 1 3.14-3.29 8 8 0 0 1 4.13-1.15c1.08 0 2.12.2 3.12.6 1 .4 1.89.97 2.66 1.74a9.04 9.04 0 0 1 2.59 6.26c0 .38-.14.7-.42.95-.28.26-.6.39-.98.39H99.64l-.63-2.41h13.48l-.56.48v-.77a4.42 4.42 0 0 0-.98-2.45 5.55 5.55 0 0 0-4.45-2.17c-.7 0-1.4.13-2.1.39-.67.23-1.29.63-1.85 1.19a6.24 6.24 0 0 0-1.33 2.1c-.33.86-.49 1.9-.49 3.11 0 1.36.27 2.55.8 3.57a6.48 6.48 0 0 0 2.31 2.46c.98.58 2.13.87 3.44.87a6.54 6.54 0 0 0 3.7-1.09c.45-.32.82-.65 1.13-.98.3-.2.59-.31.87-.31.35 0 .63.12.84.35.23.23.35.51.35.84 0 .4-.19.75-.56 1.05a8.9 8.9 0 0 1-2.66 1.93c-1.12.53-2.31.8-3.57.8Zm20.45-18.73c1.54 0 2.75.34 3.64 1.02a5.2 5.2 0 0 1 1.92 2.66c.4 1.1.6 2.32.6 3.68v9.59c0 .4-.14.73-.42 1.01-.26.28-.58.42-.98.42s-.74-.14-1.02-.42a1.45 1.45 0 0 1-.38-1.01v-9.6c0-.88-.13-1.67-.39-2.38a3.42 3.42 0 0 0-1.3-1.71 3.9 3.9 0 0 0-2.4-.67c-.96 0-1.84.23-2.63.67-.8.42-1.42 1-1.9 1.71-.46.7-.7 1.5-.7 2.39v9.59c0 .4-.13.73-.41 1.01-.26.28-.58.42-.98.42s-.74-.14-1.02-.42a1.45 1.45 0 0 1-.38-1.01V6c0-.4.13-.72.38-.98.28-.28.62-.42 1.02-.42.42 0 .76.14 1.01.42.26.26.39.58.39.98v10.46l-.7.77c.11-.6.37-1.2.77-1.82a7.27 7.27 0 0 1 5.88-3.29Zm26.26.11c.4 0 .72.14.98.42.28.26.42.58.42.98v15.44c0 .4-.14.73-.42 1.01-.26.28-.59.42-.98.42-.42 0-.76-.14-1.02-.42a1.45 1.45 0 0 1-.38-1.01v-3.33l.66-.07a3.4 3.4 0 0 1-.52 1.68 6.94 6.94 0 0 1-3.6 3.01 7.1 7.1 0 0 1-2.67.49c-1.59 0-3-.4-4.27-1.23a9.04 9.04 0 0 1-3-3.39 10.58 10.58 0 0 1-1.1-4.87c0-1.84.37-3.46 1.1-4.86a8.49 8.49 0 0 1 3-3.32 7.56 7.56 0 0 1 4.2-1.23c1 0 1.94.16 2.8.49a7.14 7.14 0 0 1 3.75 3.19c.37.67.56 1.35.56 2.03l-.91-.21v-3.82c0-.4.12-.72.38-.98.26-.28.6-.42 1.02-.42Zm-7.21 16.03c1.16 0 2.19-.3 3.08-.91a5.97 5.97 0 0 0 2.1-2.45c.5-1.05.77-2.23.77-3.54 0-1.28-.26-2.43-.77-3.46a5.69 5.69 0 0 0-10.36-.07 7.8 7.8 0 0 0-.77 3.54c0 1.3.24 2.48.73 3.53a6.33 6.33 0 0 0 2.1 2.45c.91.6 1.95.91 3.12.91Zm22.79-16.31c1.59 0 2.84.33 3.75.98a5.22 5.22 0 0 1 1.92 2.63c.4 1.1.6 2.32.6 3.67v9.84c0 .4-.15.73-.43 1.01-.25.28-.58.42-.97.42-.4 0-.74-.14-1.02-.42a1.45 1.45 0 0 1-.39-1.01V19.3c0-.89-.13-1.68-.41-2.38-.26-.72-.7-1.3-1.34-1.72a4.2 4.2 0 0 0-2.51-.66c-.99 0-1.88.22-2.7.67-.82.41-1.47.99-1.96 1.71-.49.7-.74 1.5-.74 2.38v9.77c0 .4-.13.73-.41 1.01-.26.28-.59.42-.99.42s-.73-.14-1.01-.42a1.45 1.45 0 0 1-.38-1.01V13.8c0-.4.12-.72.38-.98.28-.28.62-.42 1.01-.42.43 0 .76.14 1.02.42.26.26.38.59.38.98v2.49l-.7.77c.12-.6.39-1.21.81-1.82a7.66 7.66 0 0 1 6.09-3.29Zm26.35-7.35c.4 0 .73.14.98.42.28.26.42.58.42.98v23.07c0 .4-.14.73-.42 1.01-.25.28-.58.42-.98.42-.42 0-.75-.14-1.01-.42a1.45 1.45 0 0 1-.39-1.01v-3.33l.67-.24a3.7 3.7 0 0 1-.53 1.78c-.35.6-.82 1.18-1.43 1.71-.6.54-1.33.99-2.17 1.34a7.8 7.8 0 0 1-6.93-.7 8.77 8.77 0 0 1-3.01-3.37 10.6 10.6 0 0 1-1.09-4.86c0-1.84.37-3.48 1.09-4.9a8.5 8.5 0 0 1 3-3.32 7.56 7.56 0 0 1 4.2-1.23 7.75 7.75 0 0 1 5.01 1.82 6.71 6.71 0 0 1 1.54 1.86c.38.67.56 1.35.56 2.03l-.9-.21V6c0-.4.12-.72.38-.98.26-.28.6-.42 1.01-.42Zm-7.2 23.66c1.16 0 2.19-.3 3.07-.88a5.97 5.97 0 0 0 2.1-2.45c.52-1.04.77-2.22.77-3.53a7.8 7.8 0 0 0-.77-3.54 5.73 5.73 0 0 0-8.26-2.41 6.08 6.08 0 0 0-2.1 2.41 7.8 7.8 0 0 0-.77 3.54c0 1.28.26 2.45.77 3.5a6.35 6.35 0 0 0 2.1 2.45c.91.6 1.94.91 3.08.91Z"/><path stroke="#3DB370" stroke-width="2" d="M31.06 10.29c0-4.3-3.48-7.79-7.76-7.79a7.8 7.8 0 0 0-7.24 4.95A7.8 7.8 0 0 0 8.83 2.5a7.79 7.79 0 0 0-2.92 15 7.79 7.79 0 0 0 2.92 15 7.8 7.8 0 0 0 7.23-4.95 7.8 7.8 0 0 0 7.24 4.95 7.79 7.79 0 0 0 2.92-15 7.74 7.74 0 0 0 4.84-7.21Zm-6.17 6.84a.37.37 0 0 0 0 .74 7.04 7.04 0 0 1-1.6 13.88c-3.3 0-6.18-2.35-6.86-5.59a.37.37 0 0 0-.73 0 7.05 7.05 0 0 1-6.87 5.59 7.04 7.04 0 0 1-1.6-13.88.37.37 0 0 0 0-.74 7.04 7.04 0 0 1 1.6-13.88c3.3 0 6.2 2.35 6.87 5.59a.37.37 0 0 0 .73 0 7.05 7.05 0 0 1 6.87-5.59 7.04 7.04 0 0 1 1.59 13.88Z"/></svg>